<svg width="214" height="113" viewBox="0 0 214 113" fill="none" xmlns="http://www.w3.org/2000/svg">
<title>eco₂rd logo with leaves</title>
<path d="M89.5371 52.1582C79.9457 58.174 68.721 57.5511 64.4659 50.7669C60.2109 43.9828 64.5368 33.6064 74.1282 27.5906C83.7196 21.5749 99.1994 28.9819 99.1994 28.9819C99.1994 28.9819 99.1285 46.1425 89.5371 52.1582Z" fill="#98BF7A"/>
<path d="M87.5771 52.7973C78.9214 58.2262 68.8121 57.6964 64.9972 51.6141C61.1824 45.5317 65.1066 36.2001 73.7622 30.7712C82.4179 25.3424 96.3421 31.9545 96.3421 31.9545C96.3421 31.9545 96.2327 47.3685 87.5771 52.7973Z" fill="#9FE865"/>
<path d="M51.9937 86.7158C44.2957 83.8293 38.6547 69.8497 43.1431 63.2176C47.6314 56.5855 64.4198 62.138 67.4577 69.3861C71.753 79.6346 78.3501 86.7529 78.3501 86.7529C78.3501 86.7529 59.6917 89.6024 51.9937 86.7158Z" fill="#98BF7A"/>
<path d="M50.7363 85.8895C43.6032 83.2148 38.3762 70.2612 42.5352 64.1158C46.6941 57.9704 62.2504 63.1154 65.0653 69.8316C69.0455 79.3279 75.1584 85.9238 75.1584 85.9238C75.1584 85.9238 57.8693 88.5642 50.7363 85.8895Z" fill="#9FE865"/>
<path d="M38.814 20.8942C45.1273 13.3909 53.2961 17.6743 62.3048 12.024C68.9406 16.5068 67.3719 29.838 61.1929 37.7929C55.604 44.9882 45.9895 50.481 39.3536 45.9982C39.3536 45.9982 33.5738 40.3465 32.8427 35.6172C31.8947 29.4855 34.8193 25.6418 38.814 20.8942Z" fill="#98BF7A"/>
<path d="M39.6901 23.3275C45.5334 16.3827 53.0943 20.3473 61.4324 15.1176C67.5743 19.2667 66.1223 31.6056 60.4033 38.9684C55.2304 45.6281 46.3315 50.712 40.1896 46.5629C40.1896 46.5629 34.84 41.3319 34.1633 36.9546C33.2859 31.2793 35.9928 27.7218 39.6901 23.3275Z" fill="#9FE865"/>
<path d="M27.574 51.9063C27.574 51.9063 45.8817 59.4848 55.3551 57.6613C62.7876 56.2306 71.0761 47.801 71.0761 47.801" stroke="#707070" stroke-width="2.5"/>
<path d="M38.2884 55.4963C43.0668 63.354 45.1999 65.9245 51.9858 72.0077" stroke="#707070" stroke-width="2"/>
<path d="M40.3963 56.2426C39.4504 47.2011 41.4462 40.2457 49.2693 30.036" stroke="#707070" stroke-width="2"/>
<path d="M89.45 80.25C87.6833 80.25 86.0833 79.8667 84.65 79.1C83.2333 78.3167 82.1167 77.2417 81.3 75.875C80.5 74.5083 80.1 72.9667 80.1 71.25C80.1 69.5333 80.5083 67.9917 81.325 66.625C82.1417 65.2583 83.2583 64.1917 84.675 63.425C86.1083 62.6417 87.7083 62.25 89.475 62.25C90.9083 62.25 92.2167 62.5 93.4 63C94.5833 63.5 95.5833 64.225 96.4 65.175L94.3 67.15C93.0333 65.7833 91.475 65.1 89.625 65.1C88.425 65.1 87.35 65.3667 86.4 65.9C85.45 66.4167 84.7083 67.1417 84.175 68.075C83.6417 69.0083 83.375 70.0667 83.375 71.25C83.375 72.4333 83.6417 73.4917 84.175 74.425C84.7083 75.3583 85.45 76.0917 86.4 76.625C87.35 77.1417 88.425 77.4 89.625 77.4C91.475 77.4 93.0333 76.7083 94.3 75.325L96.4 77.325C95.5833 78.275 94.575 79 93.375 79.5C92.1917 80 90.8833 80.25 89.45 80.25ZM107.323 80.25C105.54 80.25 103.931 79.8667 102.498 79.1C101.065 78.3167 99.9395 77.2417 99.1229 75.875C98.3062 74.4917 97.8979 72.95 97.8979 71.25C97.8979 69.55 98.3062 68.0167 99.1229 66.65C99.9395 65.2667 101.065 64.1917 102.498 63.425C103.931 62.6417 105.54 62.25 107.323 62.25C109.106 62.25 110.715 62.6417 112.148 63.425C113.581 64.1917 114.706 65.2583 115.523 66.625C116.34 67.9917 116.748 69.5333 116.748 71.25C116.748 72.9667 116.34 74.5083 115.523 75.875C114.706 77.2417 113.581 78.3167 112.148 79.1C110.715 79.8667 109.106 80.25 107.323 80.25ZM107.323 77.4C108.49 77.4 109.54 77.1417 110.473 76.625C111.406 76.0917 112.14 75.3583 112.673 74.425C113.206 73.475 113.473 72.4167 113.473 71.25C113.473 70.0833 113.206 69.0333 112.673 68.1C112.14 67.15 111.406 66.4167 110.473 65.9C109.54 65.3667 108.49 65.1 107.323 65.1C106.156 65.1 105.106 65.3667 104.173 65.9C103.24 66.4167 102.506 67.15 101.973 68.1C101.44 69.0333 101.173 70.0833 101.173 71.25C101.173 72.4167 101.44 73.475 101.973 74.425C102.506 75.3583 103.24 76.0917 104.173 76.625C105.106 77.1417 106.156 77.4 107.323 77.4ZM127.443 80.725V82.5H118.943V81.1L123.418 77.2C123.934 76.7333 124.284 76.3583 124.468 76.075C124.668 75.775 124.768 75.475 124.768 75.175C124.768 74.775 124.584 74.45 124.218 74.2C123.868 73.95 123.334 73.825 122.618 73.825C122.051 73.825 121.543 73.9167 121.093 74.1C120.643 74.2833 120.284 74.5583 120.018 74.925L118.443 73.8C118.876 73.2167 119.459 72.7667 120.193 72.45C120.926 72.1167 121.793 71.95 122.793 71.95C124.109 71.95 125.143 72.2333 125.893 72.8C126.643 73.3667 127.018 74.1083 127.018 75.025C127.018 75.5583 126.884 76.0583 126.618 76.525C126.368 76.9917 125.859 77.5583 125.093 78.225L122.243 80.725H127.443ZM142.385 80L138.81 74.875C138.66 74.8917 138.435 74.9 138.135 74.9H134.185V80H130.935V62.5H138.135C139.652 62.5 140.968 62.75 142.085 63.25C143.218 63.75 144.085 64.4667 144.685 65.4C145.285 66.3333 145.585 67.4417 145.585 68.725C145.585 70.0417 145.26 71.175 144.61 72.125C143.977 73.075 143.06 73.7833 141.86 74.25L145.885 80H142.385ZM142.31 68.725C142.31 67.6083 141.943 66.75 141.21 66.15C140.477 65.55 139.402 65.25 137.985 65.25H134.185V72.225H137.985C139.402 72.225 140.477 71.925 141.21 71.325C141.943 70.7083 142.31 69.8417 142.31 68.725ZM149.221 62.5H156.871C158.738 62.5 160.396 62.8667 161.846 63.6C163.296 64.3167 164.421 65.3417 165.221 66.675C166.021 67.9917 166.421 69.5167 166.421 71.25C166.421 72.9833 166.021 74.5167 165.221 75.85C164.421 77.1667 163.296 78.1917 161.846 78.925C160.396 79.6417 158.738 80 156.871 80H149.221V62.5ZM156.721 77.25C158.004 77.25 159.129 77.0083 160.096 76.525C161.079 76.025 161.829 75.325 162.346 74.425C162.879 73.5083 163.146 72.45 163.146 71.25C163.146 70.05 162.879 69 162.346 68.1C161.829 67.1833 161.079 66.4833 160.096 66C159.129 65.5 158.004 65.25 156.721 65.25H152.471V77.25H156.721Z" fill="#D0D1CD"/>
</svg>
